<svg version="1.1" id="Layer_1" xmlns="http://www.w3.org/2000/svg" xmlns:xlink="http://www.w3.org/1999/xlink" x="0px" y="0px"
	 width="100%" viewBox="0 0 1024 1024" enable-background="new 0 0 1024 1024" xml:space="preserve">
<path fill="#000000" opacity="1.000000" stroke="none" 
	d="
M949.941345,467.903015 
	C958.057007,470.581665 965.763550,473.244537 973.545593,475.664642 
	C976.706787,476.647705 977.551880,478.630493 978.394470,481.696777 
	C980.919250,490.884216 977.306335,495.614868 969.145874,499.906830 
	C951.776855,509.042053 935.034912,519.369873 918.043152,529.221375 
	C916.933350,529.864868 915.505066,530.171692 914.980652,532.202759 
	C920.615295,532.684631 926.147156,533.253357 931.692566,533.613892 
	C947.960083,534.671326 964.226318,535.786438 980.508240,536.558594 
	C984.814026,536.762817 985.729309,538.358521 985.461365,542.354248 
	C984.690186,553.854370 987.965027,553.934448 972.832886,552.991272 
	C969.037476,552.754700 965.278564,552.039856 960.753723,552.580872 
	C965.271912,561.928406 965.567749,571.059143 960.751160,580.010010 
	C957.979858,585.160034 953.850952,588.935242 948.507629,591.329773 
	C936.555420,596.685608 921.853699,593.568848 913.816772,584.003662 
	C905.597595,574.221375 905.486877,561.243347 913.788635,548.594727 
	C909.634705,548.453308 909.495972,545.637939 909.723999,542.652344 
	C910.363953,534.274780 911.850281,525.918274 909.885742,517.504944 
	C909.314636,515.059143 911.194336,513.668457 913.092957,513.067383 
	C922.653748,510.040314 925.107483,503.687561 922.859375,494.349335 
	C921.700989,489.537842 921.586121,484.459503 921.186584,479.486755 
	C920.942383,476.447906 919.649719,474.866119 916.619202,473.882721 
	C903.798401,469.722443 903.829895,469.616272 903.631653,456.025177 
	C903.622314,455.388336 903.755127,454.749359 903.919189,453.178955 
	C919.366394,458.123657 934.464539,462.956635 949.941345,467.903015 
M922.149475,566.031433 
	C922.950073,572.342651 927.358765,574.993591 932.867554,576.266968 
	C938.414429,577.549194 943.549133,576.538147 947.394470,572.055664 
	C950.949951,567.911072 951.526672,563.101257 949.386169,558.067871 
	C947.004456,552.467346 939.431824,549.141968 932.420715,550.523987 
	C925.415405,551.904907 922.060242,556.653076 922.149475,566.031433 
M951.899353,484.574860 
	C946.364868,482.987152 940.830383,481.399475 934.975403,479.719849 
	C935.340942,486.441467 935.911865,492.721252 937.220642,499.810760 
	C944.912903,495.595764 951.881531,491.777252 960.009216,487.323700 
	C956.634888,486.183380 954.631042,485.506195 951.899353,484.574860 
z"/>
<path fill="#000000" opacity="1.000000" stroke="none" 
	d="
M418.303406,113.719673 
	C426.593414,123.510025 434.648682,133.035355 443.303925,143.270142 
	C444.268066,136.940659 442.759857,131.660126 442.215851,126.374451 
	C440.446442,109.181923 438.516052,92.004761 436.464386,74.843590 
	C436.086365,71.681473 437.289581,70.916367 440.079468,70.368996 
	C451.886566,68.052483 451.687622,67.993011 453.659668,79.527184 
	C454.402374,83.871292 453.589081,88.518890 455.865234,92.626579 
	C471.976685,84.084648 484.898407,85.083656 494.011902,95.506195 
	C502.866974,105.633110 503.670868,121.855324 495.850128,132.600327 
	C488.406189,142.827621 474.440552,145.976501 460.760681,140.198746 
	C460.454315,143.545364 458.314148,144.544434 455.217957,144.808319 
	C446.657532,145.537888 438.018585,145.923752 429.893829,149.259003 
	C427.605957,150.198181 425.942047,148.875641 424.955658,146.994507 
	C420.333160,138.179138 413.722107,136.678406 404.925690,140.754532 
	C401.049255,142.550797 396.705017,143.570831 392.462311,144.281555 
	C387.632202,145.090698 385.820251,147.784622 385.474243,152.324249 
	C385.214905,155.726730 386.354065,160.117981 383.207275,162.158173 
	C378.952057,164.916992 373.740906,165.837097 368.174133,166.618088 
	C367.729462,161.183151 369.065094,156.376678 369.704712,151.545166 
	C372.257782,132.260696 375.021973,113.003983 377.527374,93.713531 
	C377.889557,90.924850 379.097290,89.507339 381.601959,88.838196 
	C381.923828,88.752213 382.267639,88.713142 382.564423,88.573807 
	C390.237640,84.971680 396.221954,85.497925 401.427094,93.545410 
	C406.089661,100.754013 412.454742,106.861420 418.303406,113.719673 
M481.800934,106.897865 
	C479.529755,103.554199 476.460602,101.474594 472.370148,101.201134 
	C467.270111,100.860176 462.724609,102.106987 459.829193,106.673447 
	C456.258026,112.305519 456.934174,118.061264 460.032745,123.634392 
	C462.686554,128.407547 468.005981,130.628357 473.683594,129.580048 
	C478.848022,128.626495 483.039978,124.445274 483.739380,119.194901 
	C484.268860,115.219925 484.190613,111.237556 481.800934,106.897865 
M404.591949,121.746338 
	C400.369659,116.560661 396.147339,111.374985 391.678558,105.886620 
	C390.047333,111.056160 388.375214,127.918770 389.075470,131.035721 
	C392.270233,131.071487 395.146484,129.668564 398.141541,128.837875 
	C401.121246,128.011429 404.050415,127.002914 406.856598,126.119919 
	C406.920441,124.156136 405.716217,123.354034 404.591949,121.746338 
z"/>
<path fill="#000000" opacity="1.000000" stroke="none" 
	d="
M882.843384,391.757843 
	C881.505676,388.501038 880.502625,385.482178 879.111816,382.654022 
	C877.512878,379.402649 878.642761,377.938080 881.772949,376.717468 
	C890.296753,373.393707 898.779724,369.946777 907.150513,366.257477 
	C910.892334,364.608276 913.250427,361.552917 912.710632,357.117554 
	C912.192505,352.860229 910.093506,349.512451 906.036987,347.882050 
	C902.832520,346.594116 899.490540,346.972015 896.301208,348.263245 
	C888.899475,351.259979 881.452026,354.155579 874.143250,357.365509 
	C870.758484,358.852081 869.155640,358.138977 867.750793,354.705139 
	C863.180603,343.533813 863.057373,343.566925 873.967224,339.117981 
	C885.985901,334.216919 898.055847,329.438507 910.017517,324.402466 
	C913.246765,323.042877 914.969971,323.641174 916.057312,326.922089 
	C916.787842,329.126373 917.786499,331.246521 918.738464,333.371521 
	C919.881836,335.923859 920.193726,338.211090 916.601440,339.618958 
	C927.540222,348.132935 932.243103,358.352814 926.921448,371.694153 
	C927.763306,373.532928 929.760498,373.840698 931.218689,374.837708 
	C939.960938,380.815033 944.039307,389.178558 943.174500,399.612244 
	C942.423096,408.677216 936.125244,413.567841 928.401123,416.859344 
	C919.830444,420.511627 911.109924,423.817505 902.588196,427.577118 
	C899.069092,429.129669 897.516296,428.159851 896.236145,424.826752 
	C890.978943,411.139343 890.323730,414.610077 902.613037,409.405487 
	C908.129639,407.069244 913.766541,405.010590 919.239502,402.579712 
	C926.085876,399.538849 928.379761,394.971741 926.298279,389.210571 
	C924.163757,383.302765 918.336670,380.601898 911.468079,383.046783 
	C903.796631,385.777405 896.360168,389.163330 888.781372,392.162842 
	C886.925598,392.897278 884.885132,394.679199 882.843384,391.757843 
z"/>
<path fill="#000000" opacity="1.000000" stroke="none" 
	d="
M99.679092,623.270874 
	C115.494720,621.232483 128.955383,628.234131 136.143326,642.676453 
	C142.023041,654.490234 144.460831,667.553101 148.524246,680.029114 
	C149.713654,683.681091 146.515976,683.650757 144.510635,684.273254 
	C131.329849,688.364624 118.110931,692.332947 104.917328,696.383423 
	C98.403015,698.383423 91.912056,700.459961 85.419342,702.529663 
	C83.395752,703.174683 81.268562,703.737427 80.500343,701.024475 
	C76.927963,688.408447 71.266731,676.304993 69.756485,663.204041 
	C67.325775,642.118347 78.483566,627.488464 99.679092,623.270874 
M91.744431,645.190491 
	C84.960098,650.736389 83.082001,657.887695 84.980133,666.203430 
	C85.718712,669.439087 86.593781,672.650085 87.557777,675.826416 
	C89.695511,682.870483 89.760155,682.943542 96.664963,680.855225 
	C105.086060,678.308350 113.468994,675.633362 121.845932,672.943604 
	C124.622757,672.051941 127.596680,671.572815 130.304260,669.598206 
	C128.983688,665.342712 127.796135,661.213257 126.423729,657.146179 
	C120.753059,640.341125 107.553993,635.555420 91.744431,645.190491 
z"/>
<path fill="#000000" opacity="1.000000" stroke="none" 
	d="
M313.350220,872.817078 
	C314.986267,874.119141 315.180786,875.391968 314.737305,877.049255 
	C310.221710,893.924744 305.775696,910.818787 301.287659,927.701721 
	C301.124420,928.315674 300.729614,928.868103 300.194916,929.951294 
	C295.893311,928.258911 292.401459,925.515442 288.933350,922.802124 
	C287.156525,921.411865 287.975861,919.502808 288.476898,917.717041 
	C290.993378,908.748169 293.473511,899.769104 295.962677,890.792542 
	C296.264862,889.702820 296.964569,888.642639 296.111877,887.196106 
	C292.532501,888.164795 290.025513,890.947388 287.086914,892.929688 
	C281.566803,896.653625 276.067566,900.447205 270.879059,904.609924 
	C267.671295,907.183533 265.066986,907.274841 262.119415,904.586365 
	C261.266022,903.807983 260.278076,903.118652 259.243500,902.607971 
	C255.800018,900.908081 255.186401,898.531616 256.284027,894.830750 
	C259.251190,884.826294 261.802979,874.698547 264.852844,863.383179 
	C255.828415,869.790100 247.645737,875.174927 239.976334,881.211853 
	C235.725052,884.558105 232.324921,885.189209 228.370316,881.283691 
	C226.752869,879.686279 224.347321,878.944519 223.172668,876.932373 
	C223.870819,874.750183 225.676987,874.027283 227.116684,872.994080 
	C239.702393,863.962524 252.385391,855.064697 264.882050,845.912231 
	C268.181091,843.496033 270.652130,843.184143 274.131744,845.743286 
	C284.192078,853.142212 282.960846,850.042664 280.077301,861.586487 
	C278.269379,868.824341 276.230194,876.004333 274.135132,883.804688 
	C277.047028,883.467102 278.677399,881.763733 280.463928,880.540161 
	C286.098022,876.681458 291.800140,872.898254 297.196289,868.724304 
	C300.759399,865.968323 303.793091,865.420837 307.306610,868.605591 
	C309.017853,870.156799 311.125122,871.271118 313.350220,872.817078 
z"/>
<path fill="#000000" opacity="1.000000" stroke="none" 
	d="
M809.923462,817.761841 
	C804.121643,805.265076 810.023010,787.341675 827.297607,780.762085 
	C826.545776,777.450195 832.156799,767.498901 835.315247,766.472900 
	C836.878235,765.965088 837.859680,766.955872 838.852905,767.785156 
	C856.224121,782.289978 873.566528,796.829224 890.950439,811.318726 
	C893.029480,813.051636 893.323914,814.610901 891.469299,816.734741 
	C881.044067,828.672913 885.576111,828.105164 873.965759,818.958984 
	C870.855713,816.508972 867.839661,813.939636 864.235413,810.977173 
	C863.359070,816.583252 861.777100,821.199097 858.658325,825.160034 
	C847.364441,839.503906 828.410889,840.035217 815.653320,826.350525 
	C813.366699,823.897766 811.471680,821.179138 809.923462,817.761841 
M824.925537,799.579407 
	C819.250122,808.422241 830.921204,820.258789 839.474304,819.754639 
	C845.786621,819.382629 851.252808,814.543823 851.798401,808.244995 
	C852.381592,801.511963 848.304810,795.421143 841.517029,792.884094 
	C835.170044,790.511780 830.249817,792.347229 824.925537,799.579407 
z"/>
<path fill="#000000" opacity="1.000000" stroke="none" 
	d="
M125.919113,333.127686 
	C116.117691,327.173065 116.186363,327.215820 122.128151,317.669464 
	C123.629715,315.256989 125.221451,313.887390 128.056107,315.186920 
	C131.325134,296.666016 139.518250,286.835510 152.353348,285.751526 
	C165.838043,284.612671 178.931107,292.522827 183.442047,304.533661 
	C188.272141,317.394257 183.887405,328.657928 169.385162,339.406677 
	C174.491043,342.561096 179.237625,345.786255 184.260269,348.500549 
	C188.031815,350.538727 188.776321,352.496948 186.362976,356.292419 
	C180.428589,365.625458 180.528976,365.805634 171.155746,360.245209 
	C156.139435,351.337219 141.197113,342.304535 125.919113,333.127686 
M151.075714,328.659271 
	C159.930511,331.410339 166.820831,328.122101 169.300049,319.962067 
	C171.418259,312.990265 166.725571,305.833313 158.208557,303.045929 
	C151.144104,300.733948 144.293091,304.203796 141.876892,311.317474 
	C139.583221,318.070435 142.291901,323.517365 151.075714,328.659271 
z"/>
<path fill="#000000" opacity="1.000000" stroke="none" 
	d="
M509.162720,98.361465 
	C518.272949,84.294174 530.120605,81.800583 549.199951,89.810486 
	C550.791748,83.960953 550.572937,78.009560 550.784729,72.092514 
	C550.992615,66.284241 551.929016,65.564491 557.814453,66.234795 
	C567.477539,67.335358 567.686829,67.344742 567.257996,76.911438 
	C566.349365,97.181679 565.166199,117.439499 564.182251,137.706619 
	C564.018677,141.075684 562.637756,142.592346 559.218018,142.198135 
	C557.235962,141.969681 555.221558,142.011917 553.243958,141.758209 
	C550.497986,141.405869 547.131836,141.817368 547.757568,137.103348 
	C534.101501,145.179642 520.067566,140.600449 513.300964,133.967468 
	C504.699646,125.535973 502.953644,111.337708 509.162720,98.361465 
M522.598083,116.791313 
	C524.996338,125.154556 531.247437,129.267548 538.870483,127.497963 
	C545.925903,125.860130 550.033813,118.344025 548.616821,109.665146 
	C547.467468,102.625130 541.374878,98.438919 533.514832,99.288376 
	C526.096619,100.090096 522.185730,105.996651 522.598083,116.791313 
z"/>
<path fill="#000000" opacity="1.000000" stroke="none" 
	d="
M474.901245,948.904175 
	C477.870300,952.420166 481.799957,953.445068 485.572754,954.690002 
	C491.103699,956.515076 496.755554,958.014343 501.941071,960.747437 
	C515.437988,967.861389 516.137573,986.485413 503.239258,994.731750 
	C492.321716,1001.711609 469.009979,1000.553589 458.893280,992.622620 
	C457.338104,991.403381 456.651520,990.256287 457.663483,988.432800 
	C457.905212,987.997192 458.100128,987.535400 458.311188,987.083130 
	C462.169952,978.813721 462.183990,978.780029 470.415466,982.255676 
	C476.070587,984.643433 481.927551,985.424438 488.005585,984.804260 
	C491.647980,984.432556 494.541718,982.873596 495.263611,979.082642 
	C495.981812,975.310791 492.991760,973.706055 490.225311,972.603699 
	C482.967499,969.711426 475.395477,967.542175 468.310944,964.294556 
	C454.781738,958.092590 452.499969,942.095154 463.485443,932.229492 
	C467.567474,928.563477 472.601257,926.579651 477.958160,925.988220 
	C490.185699,924.638123 501.796539,926.761841 512.615234,932.881836 
	C516.135437,934.873108 517.697815,937.079651 514.880310,940.742676 
	C514.579895,941.133240 514.401489,941.617249 514.162842,942.055969 
	C510.634460,948.542603 510.652374,948.509644 504.177765,944.965210 
	C496.968903,941.018921 489.244232,939.352478 481.066193,940.263306 
	C475.608704,940.871216 473.970581,943.168396 474.901245,948.904175 
z"/>
<path fill="#000000" opacity="1.000000" stroke="none" 
	d="
M818.060913,867.046997 
	C817.051819,865.983276 816.491333,864.842163 814.735779,864.896484 
	C812.597107,869.757751 809.964478,874.468994 805.712769,878.153198 
	C795.621704,886.897400 783.665222,886.715149 774.535034,876.985901 
	C767.473145,869.460693 760.946350,861.434692 754.131775,853.675171 
	C752.351318,851.647949 752.261841,850.058716 754.526611,848.270447 
	C766.640076,838.704712 762.287598,838.307861 772.475708,849.243103 
	C776.446472,853.505005 779.991455,858.163269 783.955688,862.431763 
	C788.920959,867.778320 794.176147,868.402710 798.918579,864.547607 
	C804.387329,860.102173 805.583069,853.964783 801.258484,848.210938 
	C796.263977,841.565674 790.790100,835.254272 785.192871,829.099365 
	C782.353699,825.977417 782.718872,824.097412 785.729187,821.403198 
	C794.285889,813.745056 794.154907,813.653320 801.432129,822.110046 
	C814.467712,837.258545 827.478577,852.429382 840.651001,867.458191 
	C843.181091,870.344849 843.306702,872.055786 840.217285,874.682800 
	C831.266663,882.293640 831.387512,882.424744 823.883057,873.689392 
	C822.038330,871.542114 820.145813,869.435852 818.060913,867.046997 
z"/>
<path fill="#000000" opacity="1.000000" stroke="none" 
	d="
M711.044312,174.143753 
	C711.951843,180.225479 714.305908,185.645645 714.456482,192.331863 
	C708.362183,189.941422 703.164307,187.452087 698.211670,184.483566 
	C696.335022,183.358765 696.361450,181.016006 695.871399,179.129089 
	C694.126221,172.409668 692.511780,165.656265 690.844299,158.901230 
	C684.520203,159.142441 680.831299,161.625458 678.589417,167.171616 
	C675.708862,174.297562 675.352722,174.179672 668.695862,170.943115 
	C658.743530,166.104233 660.318848,167.538483 664.359558,158.906921 
	C673.046021,140.351822 681.920288,121.884010 690.488037,103.274696 
	C692.117249,99.735947 693.658081,98.917412 697.231445,100.646210 
	C710.128235,106.885811 708.281799,104.185059 703.019470,115.985237 
	C699.164429,124.629929 694.902710,133.093262 690.512146,142.286774 
	C694.218994,142.384979 696.813538,140.911133 699.525696,140.114899 
	C702.720520,139.176971 706.084595,138.473511 708.983459,136.931702 
	C718.958130,131.626541 726.748840,136.923859 735.757874,142.031723 
	C726.239380,147.484940 715.991028,149.309494 706.649109,154.233612 
	C708.089600,160.788864 709.512512,167.263916 711.044312,174.143753 
z"/>
<path fill="#000000" opacity="1.000000" stroke="none" 
	d="
M125.078255,753.339111 
	C123.375694,740.622131 128.625565,731.718018 138.614365,725.052124 
	C141.804962,722.922852 143.842728,723.322327 145.798752,726.757080 
	C150.492859,734.999939 155.438904,743.100037 160.330322,751.229431 
	C161.413010,753.028809 161.984833,755.261047 164.473251,756.423950 
	C168.186783,753.140259 168.340012,748.985535 167.018570,744.736633 
	C165.390869,739.503052 162.351120,735.255920 157.376709,732.499146 
	C153.350708,730.267944 153.274399,727.492249 156.331635,721.059326 
	C158.195602,717.137085 160.853912,719.238403 163.063309,720.130981 
	C174.193283,724.627441 183.405762,740.986023 182.192459,753.769470 
	C181.009857,766.229187 171.427200,776.305542 158.476486,778.707458 
	C145.121109,781.184509 131.640701,772.506897 126.453957,758.064392 
	C125.949509,756.659729 125.609871,755.195862 125.078255,753.339111 
M154.270096,761.704041 
	C150.849075,754.881104 147.169586,748.229126 142.350296,742.072327 
	C139.708435,744.203552 138.889191,746.426758 138.559769,748.683838 
	C137.800461,753.886597 139.795670,758.241211 143.926682,761.257202 
	C146.945343,763.461182 150.428894,765.424072 154.270096,761.704041 
z"/>
<path fill="#000000" opacity="1.000000" stroke="none" 
	d="
M887.437439,760.498291 
	C893.494507,754.954224 894.975586,747.819519 895.725037,740.696472 
	C896.319092,740.334778 896.586975,740.038147 896.877563,740.014038 
	C908.661865,739.033875 910.184204,740.789490 907.315491,752.229858 
	C905.456726,759.642395 901.831360,766.159241 896.673340,771.753418 
	C889.113831,779.952087 879.404724,781.601379 869.476440,776.054565 
	C860.764709,771.187561 852.342041,765.805176 843.742126,760.734619 
	C841.216309,759.245300 840.555908,757.641846 842.380432,755.116089 
	C843.641479,753.370361 844.630615,751.423401 845.688293,749.536682 
	C847.029846,747.143738 848.389526,744.839905 851.977234,746.364136 
	C851.617371,737.938416 854.731567,731.245728 860.069336,725.657959 
	C864.845520,720.658081 870.710632,718.143982 877.705383,720.443848 
	C883.914124,722.485352 887.868896,726.773804 888.760620,733.344971 
	C889.461548,738.510681 887.439331,743.173767 885.088440,747.610718 
	C882.773743,751.979309 880.218140,756.220276 877.756592,760.537842 
	C881.160583,763.544739 884.153198,762.573608 887.437439,760.498291 
M862.624939,743.422607 
	C862.085022,745.885742 861.862000,748.370667 862.770813,750.774048 
	C863.508789,752.725464 864.855164,754.231689 867.015686,754.580444 
	C869.104919,754.917664 869.858337,753.153625 870.683960,751.772766 
	C872.297852,749.073547 874.045898,746.405518 875.238708,743.518127 
	C876.308777,740.927673 875.999817,738.291016 873.276917,736.508972 
	C870.491699,734.686340 868.244263,735.804626 866.141724,737.728333 
	C864.645081,739.097595 863.640808,740.809021 862.624939,743.422607 
z"/>
<path fill="#000000" opacity="1.000000" stroke="none" 
	d="
M124.141205,598.786194 
	C118.664528,612.419800 106.105560,619.394592 92.346611,616.760925 
	C79.442017,614.290771 70.250328,602.505493 69.545586,588.791321 
	C68.682701,571.999756 79.897942,561.567505 93.449867,559.222412 
	C97.451149,558.529907 99.366348,559.572571 99.835060,563.709839 
	C100.864426,572.795898 102.123474,581.855835 103.264404,590.929443 
	C103.571663,593.372864 103.610542,595.873535 104.958649,598.056213 
	C109.773575,596.392944 113.060211,591.182190 112.495331,585.494263 
	C112.067413,581.185547 111.236229,576.808350 107.954308,573.592346 
	C105.685005,571.368652 105.566704,569.472351 107.844505,567.281006 
	C108.798347,566.363403 109.657753,565.308533 110.383865,564.200500 
	C112.872086,560.403564 115.325157,561.070374 117.867882,564.116699 
	C125.996254,573.854919 127.429161,584.976440 124.680267,596.966125 
	C124.568855,597.452148 124.400246,597.924988 124.141205,598.786194 
M91.096603,578.093933 
	C89.793541,575.691284 88.316391,577.119019 87.027161,578.014465 
	C83.307175,580.598267 81.778038,586.143677 83.059448,591.449402 
	C84.321495,596.675049 87.463654,599.665588 93.439034,600.545776 
	C94.222206,592.901794 91.799774,585.910095 91.096603,578.093933 
z"/>
<path fill="#000000" opacity="1.000000" stroke="none" 
	d="
M854.440918,268.250000 
	C846.442566,278.993103 846.345215,279.012787 837.747803,269.550201 
	C831.388794,262.551239 825.079285,255.507385 818.461914,248.166473 
	C815.059570,251.871094 815.617615,255.653381 816.908142,259.149597 
	C819.040771,264.927277 823.328003,268.713470 829.202209,270.698822 
	C833.430908,272.127930 834.268616,275.537262 832.478088,281.816040 
	C831.209045,286.266235 827.976501,284.740448 825.619690,283.973083 
	C813.266357,279.951019 805.649292,271.052063 801.816833,258.986969 
	C798.574707,248.780014 801.852966,239.882996 809.142578,232.511581 
	C819.345520,222.194199 834.777344,221.364365 846.443054,230.197540 
	C858.720459,239.493881 861.963379,254.425217 854.440918,268.250000 
M828.174133,243.592163 
	C832.676758,248.569183 836.802673,253.911469 841.915405,258.374573 
	C845.786743,253.488480 845.539612,247.848572 841.535950,243.338303 
	C837.083313,238.322327 831.436951,237.308563 826.051208,240.749222 
	C826.624756,241.542267 827.189636,242.323395 828.174133,243.592163 
z"/>
<path fill="#000000" opacity="1.000000" stroke="none" 
	d="
M191.193878,234.826431 
	C198.375412,234.827530 204.349197,237.113281 209.694992,241.104416 
	C214.482407,244.678726 214.507523,245.621185 210.685745,250.185806 
	C204.166901,257.971802 197.703903,265.804657 191.234283,273.631744 
	C190.620758,274.373962 190.126480,275.214722 189.430939,276.220825 
	C192.487457,278.698975 195.565521,278.047668 198.410950,276.807861 
	C204.633682,274.096436 208.718399,269.284424 209.606888,262.558472 
	C210.122849,258.652527 211.668121,257.604675 215.334015,257.592255 
	C223.622131,257.564240 225.382538,259.299896 222.786057,267.306122 
	C218.430679,280.735962 209.738022,290.125946 195.455765,292.969910 
	C176.815872,296.681610 158.945251,276.730316 164.378433,258.272827 
	C168.246262,245.133102 176.973221,237.035370 191.193878,234.826431 
M184.609802,250.963562 
	C176.800110,256.707031 175.196182,264.077911 181.039581,269.354156 
	C185.999786,263.468750 191.283569,257.879150 195.818695,251.283096 
	C191.930450,248.866440 188.632614,249.115173 184.609802,250.963562 
z"/>
<path fill="#000000" opacity="1.000000" stroke="none" 
	d="
M711.838501,894.129211 
	C710.143250,891.427979 708.596741,889.059998 707.110535,886.654846 
	C703.736389,881.194336 703.650391,881.012085 709.451416,877.757874 
	C712.552429,876.018311 715.325684,871.584839 719.931152,875.869568 
	C723.151489,867.502014 729.549805,863.094421 737.475586,860.567627 
	C745.318176,858.067505 752.913940,860.823120 756.975464,867.520935 
	C760.968872,874.106506 759.886719,880.785156 754.015564,887.013062 
	C750.424194,890.822571 746.051636,893.524475 741.699341,896.287476 
	C739.892944,897.434204 737.894226,898.333069 736.387451,900.408691 
	C738.305420,904.211365 741.488770,905.188843 745.380249,904.186768 
	C751.152771,902.700256 755.616089,899.123901 758.455200,894.060486 
	C760.825378,889.833496 763.193848,889.661926 766.624878,892.434082 
	C767.649048,893.261536 768.871704,893.860229 770.048218,894.478455 
	C772.131348,895.573120 772.410278,897.111023 771.235901,899.009705 
	C764.040466,910.642944 754.097107,918.593079 740.256226,920.111877 
	C732.521973,920.960571 726.538940,916.665039 722.233093,910.414612 
	C718.650146,905.213440 715.407776,899.777527 711.838501,894.129211 
M727.937439,888.276306 
	C728.921753,890.044434 730.123352,891.335632 732.281677,889.940430 
	C735.342896,887.961426 738.480713,886.074890 741.374756,883.871521 
	C743.695557,882.104736 744.607971,879.553833 743.117004,876.801575 
	C741.470703,873.762390 738.650085,873.661560 735.736450,874.532349 
	C730.134338,876.206726 726.996216,881.330261 727.937439,888.276306 
z"/>
<path fill="#000000" opacity="1.000000" stroke="none" 
	d="
M449.356018,931.886108 
	C457.302612,949.705750 449.608032,967.449890 432.035095,972.562622 
	C417.551147,976.776672 400.184418,968.852844 394.364441,955.374939 
	C387.177460,938.731262 397.898590,919.092346 415.936798,916.935608 
	C429.571960,915.305298 441.311005,919.384277 449.356018,931.886108 
M415.966644,932.329712 
	C414.968384,933.200439 413.773407,933.926025 413.005524,934.966797 
	C409.446472,939.789978 408.160553,945.164307 410.019592,950.959351 
	C411.466278,955.468872 414.789307,958.051392 419.451874,958.838379 
	C425.793243,959.908936 430.781494,957.740784 433.514954,952.782166 
	C436.756134,946.902527 436.484283,939.716553 432.857330,935.403198 
	C428.915161,930.714966 423.196869,929.505981 415.966644,932.329712 
z"/>
<path fill="#000000" opacity="1.000000" stroke="none" 
	d="
M866.893555,329.593140 
	C866.352905,333.445618 864.627014,334.279236 861.251953,333.319824 
	C850.168945,330.169464 838.896729,314.121429 838.846802,301.087463 
	C838.800293,288.956451 847.891296,277.775269 860.542603,274.403290 
	C873.968201,270.824921 888.184326,278.332764 894.128723,292.140900 
	C899.749023,305.195923 895.427124,319.056793 883.616272,326.723694 
	C880.265869,328.898560 878.456848,328.233948 876.436707,325.008789 
	C871.226074,316.690125 865.757751,308.531952 860.334351,300.348145 
	C859.351074,298.864349 858.663696,297.077698 856.647156,296.073242 
	C853.022095,299.331635 853.591614,303.551178 854.433899,307.515961 
	C855.437805,312.241577 858.109253,316.599792 862.455200,318.433685 
	C868.074097,320.804749 869.051453,324.108154 866.893555,329.593140 
M874.226807,289.116028 
	C871.521240,288.203979 868.840027,287.770142 865.607971,289.631226 
	C870.000427,296.547882 873.945435,303.428467 879.091492,309.636871 
	C885.684448,303.121399 883.710266,294.592529 874.226807,289.116028 
z"/>
<path fill="#000000" opacity="1.000000" stroke="none" 
	d="
M210.597778,804.597778 
	C211.314041,803.871948 211.761993,803.377075 212.246719,802.921326 
	C221.352798,794.358704 218.186951,793.582764 227.879669,803.150208 
	C230.267563,805.507202 230.178467,805.597473 229.191010,809.680847 
	C235.565018,810.929382 240.772781,814.249939 244.957443,819.244934 
	C247.365982,822.119812 249.076294,825.325500 249.858826,828.954163 
	C251.311188,835.689026 248.891953,841.074036 243.626709,845.238281 
	C238.832611,849.029907 233.536057,849.228210 228.115967,846.792969 
	C221.730835,843.924072 217.209259,838.704712 212.290604,833.984192 
	C211.078354,832.820923 209.990372,830.522217 207.833069,831.845581 
	C206.007141,832.965637 205.731094,835.216492 205.851181,837.227722 
	C206.004333,839.792908 207.222977,842.000793 208.876114,843.946899 
	C211.969711,847.588562 215.754379,850.333374 220.345108,851.599915 
	C223.802383,852.553650 224.872604,853.916992 223.657364,857.611023 
	C220.796173,866.308533 220.209885,866.757629 211.989716,862.679565 
	C204.708344,859.067200 198.582718,854.056274 193.980026,847.269104 
	C187.695496,838.001892 188.114029,828.121704 195.622711,819.781799 
	C200.295471,814.591736 205.423111,809.811157 210.597778,804.597778 
M219.166473,826.423889 
	C221.590591,828.681458 223.712860,831.292969 226.678818,832.917480 
	C228.922791,834.146484 231.156204,834.183960 233.181885,832.498901 
	C235.313858,830.725281 235.123810,828.354309 234.342453,826.089111 
	C232.640320,821.154297 225.858307,817.771851 220.846710,819.216248 
	C216.900269,820.353638 216.212982,822.497070 219.166473,826.423889 
z"/>
<path fill="#000000" opacity="1.000000" stroke="none" 
	d="
M913.383301,685.574707 
	C905.119629,681.990723 897.216125,678.476868 889.192993,675.261536 
	C885.512329,673.786560 884.467224,672.079102 886.189331,668.151001 
	C890.837036,657.549377 890.639954,657.551941 901.444336,662.083557 
	C913.256592,667.037903 925.092712,671.941895 937.010376,676.634277 
	C940.585327,678.041870 941.823853,679.751648 939.907288,683.318298 
	C938.888123,685.214905 938.005615,687.226990 937.381104,689.283997 
	C936.382385,692.572937 934.550415,693.625793 930.867493,691.442078 
	C932.432983,699.298035 931.874451,706.239014 928.334656,712.796753 
	C923.480225,721.789917 914.869873,726.282898 904.960571,723.838562 
	C893.458984,721.001526 882.997009,715.254272 872.038391,710.885193 
	C870.949768,710.451172 869.686035,709.597778 870.161804,708.302124 
	C871.705261,704.098633 873.292297,699.885010 875.281006,695.883179 
	C876.144775,694.144897 877.997009,695.464905 879.308044,695.978699 
	C887.516174,699.195862 895.616272,702.710999 903.917358,705.662903 
	C912.936035,708.869873 919.972778,702.873230 918.782043,693.390503 
	C918.354431,689.984924 916.427124,687.616028 913.383301,685.574707 
z"/>
<path fill="#000000" opacity="1.000000" stroke="none" 
	d="
M89.430176,493.890564 
	C76.077873,488.160187 69.196609,474.790405 72.277138,461.128571 
	C75.668228,446.089417 86.265457,437.223969 100.295395,437.760895 
	C101.943298,437.823975 103.573837,438.263550 105.219856,438.469238 
	C108.340889,438.859253 109.275520,440.266449 108.692863,443.574738 
	C106.848038,454.049591 105.390678,464.592682 103.784454,475.109558 
	C103.589043,476.389038 102.943466,477.688812 103.928619,478.920868 
	C111.672157,477.645172 117.019760,468.908203 115.315392,460.303101 
	C115.121956,459.326416 114.692436,458.393951 114.526459,457.414917 
	C114.184662,455.398834 111.614380,453.323090 113.607262,451.457428 
	C115.999062,449.218292 118.886269,447.318726 121.873642,445.968201 
	C124.075340,444.972870 124.843697,447.567169 125.682182,449.058929 
	C131.448181,459.317200 129.138412,476.403595 120.688110,486.573425 
	C113.459480,495.272949 102.265541,497.977173 89.430176,493.890564 
M92.498108,454.060516 
	C86.588875,457.174194 84.306717,461.489136 85.074631,468.374664 
	C85.569382,472.810883 87.574486,476.101135 92.143913,477.397125 
	C93.141052,475.338837 96.677536,457.480499 96.593941,455.833954 
	C96.468826,453.369202 95.075844,453.192566 92.498108,454.060516 
z"/>
<path fill="#000000" opacity="1.000000" stroke="none" 
	d="
M129.280121,406.861633 
	C110.993629,408.797516 97.224831,398.088501 96.277649,380.551239 
	C95.450485,365.236053 105.138596,348.358459 123.674438,346.950226 
	C139.793732,345.725555 156.846115,358.929169 153.439926,379.543945 
	C151.171066,393.275391 143.788086,403.067902 129.280121,406.861633 
M111.275520,372.823608 
	C109.074776,381.163696 113.717979,388.130066 122.952827,390.343475 
	C130.516586,392.156403 137.087082,387.861481 138.913086,379.910767 
	C140.485245,373.065338 136.710953,367.173645 128.939117,364.341278 
	C121.325432,361.566589 115.431206,364.178772 111.275520,372.823608 
z"/>
<path fill="#000000" opacity="1.000000" stroke="none" 
	d="
M672.357849,928.598877 
	C676.689636,935.634033 680.699951,937.250061 686.424438,934.537903 
	C692.654114,931.586426 695.297119,925.864319 692.822021,919.190186 
	C689.931396,911.395630 686.622314,903.746399 683.228943,896.152832 
	C681.753601,892.851318 682.142517,891.123779 685.721863,889.738586 
	C698.187744,884.914185 695.767822,883.085693 701.397522,896.035583 
	C707.031128,908.994446 712.485046,922.031494 717.974548,934.932800 
	C711.563599,940.686218 704.700134,942.149414 701.119629,938.532471 
	C697.989075,943.701294 693.552368,947.285767 688.056702,949.694824 
	C676.254333,954.868469 665.703918,951.742004 659.581238,940.372437 
	C655.569092,932.922058 652.451721,924.978455 649.117126,917.177368 
	C644.830811,907.149536 645.013062,907.347290 655.030212,902.889282 
	C659.433655,900.929688 661.172180,902.200745 662.764832,906.240784 
	C665.692810,913.668213 669.033630,920.932983 672.357849,928.598877 
z"/>
<path fill="#000000" opacity="1.000000" stroke="none" 
	d="
M760.897034,175.342834 
	C756.849609,169.109894 750.823914,166.684418 744.322754,165.630035 
	C740.574463,165.022125 739.363586,163.697189 740.326294,160.105438 
	C740.710022,158.673721 740.756470,157.144485 740.886902,155.653549 
	C741.107178,153.135681 742.497681,152.133316 744.924500,152.456558 
	C758.143860,154.217300 769.111450,159.871643 776.088684,171.579376 
	C780.008789,178.157242 779.217834,185.249329 775.370667,191.564194 
	C769.833984,200.652161 763.725891,209.392181 757.848328,218.271866 
	C757.296753,219.105133 756.666931,219.912170 755.567505,220.056534 
	C751.925110,220.534851 743.851440,212.376221 744.363098,208.443817 
	C736.070801,209.054703 729.530212,205.469193 724.047119,199.667084 
	C717.784729,193.040390 716.937866,185.080933 721.613892,178.280869 
	C726.115234,171.734650 733.627502,169.960617 742.098267,173.445740 
	C746.593689,175.295319 750.549500,178.070297 754.654236,180.611221 
	C756.445068,181.719818 758.230896,184.696030 760.609131,182.699142 
	C762.680237,180.960144 761.934937,178.107635 760.897034,175.342834 
M734.708435,191.784531 
	C737.866394,197.078781 742.653320,199.588882 747.849854,198.706863 
	C750.530762,198.251831 752.678528,196.799942 753.394470,194.284973 
	C754.090759,191.838837 751.502075,191.055954 749.980408,189.966415 
	C747.828247,188.425461 745.595825,186.908859 743.200378,185.813400 
	C738.007629,183.438629 735.256592,185.198059 734.708435,191.784531 
z"/>
<path fill="#000000" opacity="1.000000" stroke="none" 
	d="
M597.168762,133.985596 
	C607.002136,138.047333 613.347900,134.726730 615.625671,124.657356 
	C617.311157,117.206459 619.079285,109.769402 620.521057,102.270508 
	C621.139038,99.056404 622.590454,98.247986 625.674133,98.669365 
	C637.681458,100.310135 637.778992,100.260635 635.407654,111.934265 
	C632.794556,124.798103 629.928101,137.610550 627.326660,150.476654 
	C626.632935,153.907761 625.293091,155.558167 621.604065,154.346725 
	C619.878235,153.779984 618.048584,153.498245 616.247314,153.199585 
	C613.057983,152.670792 610.355957,151.697922 610.974670,147.240692 
	C604.371704,149.817856 598.248901,150.485138 591.952759,148.435349 
	C579.774109,144.470444 573.880249,135.264801 576.155457,122.688225 
	C577.899414,113.048119 580.323242,103.532829 582.239197,93.921066 
	C582.925781,90.476776 584.418091,89.830437 587.787354,90.478706 
	C599.659607,92.763008 599.675842,92.625267 597.094910,104.491432 
	C595.894470,110.010231 594.510559,115.503128 593.638000,121.074821 
	C592.924255,125.631920 592.081055,130.485245 597.168762,133.985596 
z"/>
<path fill="#000000" opacity="1.000000" stroke="none" 
	d="
M895.032104,641.288574 
	C896.000000,637.798035 895.776306,633.707214 901.752197,635.054688 
	C898.124329,627.314941 898.371704,620.107117 901.462036,612.924622 
	C905.568054,603.381409 914.720886,598.097168 924.877686,600.103516 
	C935.149597,602.132568 945.315674,604.697144 955.529053,607.023132 
	C958.200989,607.631592 959.618286,608.828003 958.650208,611.941895 
	C957.479187,615.708618 957.212830,619.745911 955.340210,623.716003 
	C947.475952,622.811829 940.077637,620.211243 932.450439,618.763550 
	C929.838440,618.267822 927.246216,617.536804 924.611389,617.317627 
	C918.242310,616.787720 914.910095,619.044312 913.279114,624.639221 
	C911.618958,630.334351 913.564270,635.373962 919.070862,637.876648 
	C927.150085,641.548462 935.979004,642.742920 944.572815,644.572266 
	C949.127258,645.541809 950.668396,646.993713 949.357300,651.904663 
	C946.567200,662.355652 946.853271,662.365845 936.304932,659.893250 
	C924.808655,657.198425 913.284607,654.621521 901.766907,652.018494 
	C893.322083,650.109985 893.317993,650.128174 895.032104,641.288574 
z"/>
<path fill="#000000" opacity="1.000000" stroke="none" 
	d="
M384.983673,949.028625 
	C386.454681,953.494385 384.422546,957.091858 382.176727,960.169800 
	C380.348267,962.675781 377.609619,959.636047 375.083679,959.847168 
	C373.421448,960.534729 373.291931,962.410889 372.537567,963.814514 
	C365.645844,976.637268 347.869537,978.774841 338.022339,967.970886 
	C336.695038,966.514648 336.269592,965.237366 337.658813,963.628662 
	C338.854858,962.243835 340.041229,960.839661 341.102173,959.351624 
	C342.886475,956.848999 344.579437,956.666931 347.336670,958.367065 
	C352.836029,961.758118 356.233154,960.300903 358.338959,954.012634 
	C356.202148,951.888000 353.156342,951.408081 350.426514,950.431580 
	C347.389191,949.345093 346.222229,947.989929 347.384888,944.521362 
	C350.029449,936.632263 349.890472,936.442749 358.019196,939.305359 
	C361.715637,940.607056 363.672668,940.124695 365.010803,936.032837 
	C368.216187,926.231262 371.982666,916.614563 375.330719,906.857361 
	C376.360382,903.856689 377.850037,902.815002 380.884918,903.937012 
	C395.494537,909.338501 393.205597,906.838684 388.637115,919.577515 
	C386.109863,926.624634 383.848724,933.785706 380.928955,940.666870 
	C378.986938,945.243896 379.642487,947.826477 384.983673,949.028625 
z"/>
<path fill="#000000" opacity="1.000000" stroke="none" 
	d="
M120.270081,537.066772 
	C102.559395,544.255005 85.203766,551.240845 66.854889,558.626465 
	C66.854889,552.693726 66.702736,547.940308 66.917923,543.203552 
	C67.028496,540.769653 69.421280,540.375427 71.254074,539.665344 
	C81.313202,535.768127 91.377014,531.882996 102.105011,527.736389 
	C99.500008,525.410706 96.826454,524.660217 94.391243,523.565857 
	C86.810501,520.159119 79.246338,516.702820 71.556908,513.556091 
	C67.791725,512.015320 66.453224,509.556854 67.232635,505.771820 
	C67.830681,502.867554 67.051880,499.794098 68.202576,497.059570 
	C69.944672,496.241150 71.274460,497.107880 72.612144,497.696503 
	C87.676559,504.325195 102.698608,511.051788 117.814514,517.560547 
	C121.261742,519.044922 122.759270,521.196899 122.242813,524.834229 
	C121.674011,528.840271 123.533455,533.173035 120.270081,537.066772 
z"/>
<path fill="#000000" opacity="1.000000" stroke="none" 
	d="
M342.965637,932.446411 
	C349.718414,937.086060 349.691254,937.429077 345.675812,944.638794 
	C344.312561,947.086426 342.826141,947.716614 340.492004,946.436829 
	C337.119141,944.587463 335.513550,946.071838 334.037872,949.181702 
	C330.587616,956.452759 331.941193,957.053467 323.261810,952.817810 
	C322.813324,952.598938 322.356750,952.396790 321.906769,952.180908 
	C315.674866,949.191345 315.385284,949.036621 318.745148,942.737244 
	C321.060699,938.395813 320.150024,936.406250 315.758636,934.568726 
	C309.629272,932.003906 309.016632,925.774658 314.043671,921.351562 
	C315.107941,920.415222 316.168304,920.551331 317.274994,921.020508 
	C318.805908,921.669373 320.372253,922.281799 321.797607,923.122986 
	C325.254578,925.163269 327.528412,924.559875 329.112061,920.656860 
	C330.860474,916.347778 333.060852,912.224060 334.988861,907.985291 
	C338.204254,900.916199 336.638153,897.847961 329.116333,896.312988 
	C328.474365,896.181946 327.837616,896.025330 327.281494,895.899353 
	C327.068970,895.478760 326.806366,895.192261 326.789276,894.891724 
	C326.097900,882.740479 328.667053,880.954407 340.095856,885.620911 
	C352.609009,890.730103 356.656860,900.775574 351.186401,913.069092 
	C348.360352,919.419983 344.664612,925.389343 342.965637,932.446411 
z"/>
<path fill="#000000" opacity="1.000000" stroke="none" 
	d="
M77.446899,421.672943 
	C75.134811,421.036377 73.103165,420.773590 71.293678,419.994659 
	C68.193558,418.660248 63.103802,419.602905 62.282486,415.934265 
	C61.376793,411.888733 63.706379,407.550323 65.100739,403.473328 
	C65.809990,401.399567 67.576584,401.665985 69.297432,402.143646 
	C91.089394,408.192810 112.878128,414.253815 134.687241,420.240570 
	C137.554016,421.027527 138.387375,422.435181 137.530502,425.328186 
	C133.364426,439.393890 136.508759,437.916595 122.539421,434.160767 
	C107.608223,430.146332 92.729126,425.938171 77.446899,421.672943 
z"/>
<path fill="#000000" opacity="1.000000" stroke="none" 
	d="
M673.371460,98.391739 
	C666.487427,118.613220 659.723877,138.468796 652.952454,158.321686 
	C650.937744,164.228622 650.837524,164.215897 644.796875,162.161621 
	C632.997864,158.149033 635.130127,159.242065 638.642334,148.874908 
	C644.998718,130.112640 651.505676,111.400703 657.734253,92.596375 
	C659.070496,88.562302 660.763916,86.968407 664.855103,89.113747 
	C666.458862,89.954735 668.257629,90.506851 670.030090,90.926651 
	C674.164368,91.905876 675.781372,93.978104 673.371460,98.391739 
z"/>
<path fill="#000000" opacity="1.000000" stroke="none" 
	d="
M243.423981,239.582550 
	C248.864395,245.361786 248.923264,245.432587 242.985840,250.369019 
	C240.845032,252.148895 239.198090,254.585129 235.891678,255.876266 
	C230.323593,249.956299 224.636948,243.937622 218.981491,237.889755 
	C213.299698,231.813751 207.735199,225.625031 201.943405,219.656387 
	C199.534042,217.173462 199.445267,215.273819 202.148209,213.096634 
	C203.697189,211.848969 205.112396,210.414566 206.470062,208.954712 
	C208.717697,206.537903 210.994568,204.794296 214.073486,208.483093 
	C215.544540,203.134354 217.476257,198.789963 220.609100,195.029495 
	C222.499802,192.760025 224.272339,192.394684 226.317581,194.778809 
	C227.399460,196.039993 228.533325,197.271881 229.757416,198.392822 
	C233.019608,201.380096 233.936783,203.716827 229.962814,207.480530 
	C224.675003,212.488541 225.049561,219.125183 230.046478,224.963287 
	C234.262848,229.889450 238.791809,234.548080 243.423981,239.582550 
z"/>
<path fill="#000000" opacity="1.000000" stroke="none" 
	d="
M196.217377,802.250000 
	C188.967087,807.870300 181.920410,813.180664 175.095078,818.761597 
	C172.202072,821.127197 170.073456,821.634277 167.908005,818.069519 
	C166.878067,816.374023 165.474899,814.906677 164.257248,813.323425 
	C161.393204,809.599426 161.397202,809.596375 164.790680,805.689270 
	C159.687164,804.233948 155.175644,801.959290 151.551056,798.146851 
	C149.655441,796.152954 149.550873,794.460876 151.874161,792.795898 
	C152.955658,792.020813 154.123276,791.307800 155.028168,790.354431 
	C158.782623,786.398682 161.670029,785.817993 165.666122,790.784607 
	C170.005692,796.178162 175.927475,796.173218 182.225983,791.703674 
	C188.599228,787.180969 194.770645,782.350037 200.791534,777.365540 
	C203.467667,775.150085 205.020813,775.688904 206.835922,778.180908 
	C215.467880,790.032288 216.121277,786.257080 204.752151,795.569885 
	C202.049271,797.783875 199.260025,799.892456 196.217377,802.250000 
z"/>
<path fill="#000000" opacity="1.000000" stroke="none" 
	d="
M777.914185,234.979645 
	C776.446716,236.427094 775.176697,237.777817 773.393250,236.334702 
	C770.291992,233.825394 767.226746,231.262573 764.277893,228.577774 
	C762.819641,227.250092 763.691162,225.885788 764.755676,224.662659 
	C775.350708,212.488785 785.932434,200.303421 796.529907,188.131683 
	C797.179932,187.385101 797.926880,186.429947 799.007324,186.730423 
	C802.191223,187.615891 803.893188,190.628082 806.585327,192.243454 
	C809.830566,194.190628 811.018860,196.607101 807.713928,200.233795 
	C813.324951,200.845154 818.010071,202.225266 822.147278,205.138855 
	C824.534119,206.819748 825.195862,208.551254 822.856445,210.761475 
	C822.374146,211.217148 821.957703,211.742905 821.514343,212.239456 
	C816.089233,218.315735 816.089478,218.315918 809.117737,214.512863 
	C804.001953,211.722214 798.322388,212.360397 794.084290,216.829590 
	C788.594055,222.619385 783.457336,228.744492 777.914185,234.979645 
z"/>
<path fill="#000000" opacity="1.000000" stroke="none" 
	d="
M590.223267,934.563354 
	C587.647949,940.603577 583.574707,943.365540 578.778687,942.704163 
	C574.098267,942.058777 570.531128,938.230774 569.936340,933.215210 
	C569.421936,928.877136 572.381775,924.441650 576.753052,922.666992 
	C582.786682,920.217407 591.807556,925.205872 590.223267,934.563354 
z"/>
<path fill="#000000" opacity="1.000000" stroke="none" 
	d="
M316.296814,195.402588 
	C312.006165,198.271698 307.828674,198.633255 303.882294,195.870911 
	C300.331696,193.385590 298.847534,189.678055 299.752563,185.369064 
	C300.662567,181.036194 303.605957,178.499161 307.829102,177.483093 
	C312.493774,176.360779 315.955200,178.353592 318.469116,182.104385 
	C321.344757,186.394867 320.712311,190.228088 316.296814,195.402588 
z"/>
</svg>